Coordinates
version=1
nRows=6
nColumns=63
inDegrees=yes

Units are S.I. units (second, meters, Newtons, ...)
If the header above contains a line with 'inDegrees', this indicates whether rotational values are in degrees (yes) or radians (no).

endheader
time	pelvis_tilt	pelvis_list	pelvis_rotation	pelvis_tx	pelvis_ty	pelvis_tz	hip_flexion_r	hip_adduction_r	hip_rotation_r	knee_angle_r	knee_angle_r_beta	ankle_angle_r	subtalar_angle_r	mtp_angle_r	hip_flexion_l	hip_adduction_l	hip_rotation_l	knee_angle_l	knee_angle_l_beta	ankle_angle_l	subtalar_angle_l	mtp_angle_l	L5_S1_Flex_Ext	L5_S1_Lat_Bending	L5_S1_axial_rotation	L4_L5_Flex_Ext	L4_L5_Lat_Bending	L4_L5_axial_rotation	L3_L4_Flex_Ext	L3_L4_Lat_Bending	L3_L4_axial_rotation	L2_L3_Flex_Ext	L2_L3_Lat_Bending	L2_L3_axial_rotation	L1_L2_Flex_Ext	L1_L2_Lat_Bending	L1_L2_axial_rotation	L1_T12_Flex_Ext	L1_T12_Lat_Bending	L1_T12_axial_rotation	Abs_r3	Abs_r2	Abs_r1	Abs_t1	Abs_t2	neck_flexion	neck_bending	neck_rotation	arm_flex_r	arm_add_r	arm_rot_r	elbow_flex_r	pro_sup_r	wrist_flex_r	wrist_dev_r	arm_flex_l	arm_add_l	arm_rot_l	elbow_flex_l	pro_sup_l	wrist_flex_l	wrist_dev_l
0.000000	2.032607	-2.333729	91.331041	0.228975	0.879326	0.695435	9.194085	0.856034	-2.279421	16.532237	0.288542	29.932879	7.993101	0.000000	7.470858	-2.997902	2.489594	12.910359	0.225328	25.920909	-5.113420	0.000000	0.171972	-0.002008	1.086971	0.319370	-0.002670	1.154907	0.282533	-0.004882	1.154907	0.196547	-0.004882	0.951100	0.159694	-0.004094	0.883164	0.098265	-0.003110	0.815228	1.228381	-0.022712	6.045407	0.000000	0.000000	16.780085	0.383665	-17.150800	4.309145	-4.039589	43.843687	35.018976	48.117781	3.099269	7.311766	11.507292	-3.444084	63.669521	29.693606	58.854684	0.379505	2.427702
0.031250	1.402150	-2.470339	91.517555	0.229132	0.879579	0.696621	9.470891	0.051479	-2.801080	16.898871	0.294941	30.269582	8.888433	0.000000	7.793694	-2.281730	3.212194	13.111691	0.228842	25.277966	-5.962745	0.000000	0.159573	-0.100044	1.065592	0.296344	-0.133058	1.132191	0.262163	-0.243247	1.132191	0.182376	-0.243247	0.932393	0.148180	-0.204009	0.865793	0.091180	-0.154968	0.799194	1.139816	-1.131716	5.926501	0.000000	0.000000	16.446811	1.663308	-17.115591	3.724296	-3.765142	37.422088	37.703403	53.806584	4.193170	8.658780	10.544937	-4.458949	49.330730	33.774305	69.665331	1.300734	5.175306
0.062500	0.943028	-2.638410	91.701099	0.229185	0.879651	0.697527	9.708102	-0.534843	-3.126504	17.092090	0.298313	30.488030	9.458055	0.000000	8.135258	-1.754623	3.740116	13.305169	0.232219	24.831942	-6.549474	0.000000	0.151118	-0.171721	1.043481	0.280641	-0.228389	1.108698	0.248271	-0.417522	1.108698	0.172712	-0.417522	0.913046	0.140328	-0.350173	0.847828	0.086349	-0.265996	0.782611	1.079418	-1.942542	5.803527	0.000000	0.000000	16.370818	2.746240	-16.856188	3.375466	-3.569046	32.653193	39.498505	58.366597	4.741551	9.348188	9.955299	-5.137680	39.679565	36.425866	77.201715	1.931573	6.982336
0.093750	0.640912	-2.831010	91.879270	0.229145	0.879562	0.698171	9.904574	-0.921176	-3.267891	17.127574	0.298933	30.596768	9.726409	0.000000	8.486782	-1.400666	4.093675	13.488169	0.235413	24.564139	-6.901030	0.000000	0.146006	-0.219181	1.020909	0.271148	-0.291510	1.084716	0.239873	-0.532916	1.084716	0.166870	-0.532916	0.893295	0.135581	-0.446953	0.829489	0.083428	-0.339511	0.765682	1.042906	-2.479415	5.677989	0.000000	0.000000	16.520726	3.643092	-16.398065	3.240694	-3.447190	29.450448	40.476110	61.834159	4.816258	9.454599	9.695601	-5.518282	34.248595	37.793708	81.768018	2.299300	7.949871
0.125000	0.481473	-3.041210	92.049670	0.229022	0.879331	0.698569	10.059163	-1.125764	-3.237441	17.021003	0.297073	30.604342	9.717938	0.000000	8.839497	-1.203944	4.293188	13.658063	0.238378	24.455857	-7.044841	0.000000	0.143639	-0.244564	0.998146	0.266752	-0.325271	1.060531	0.235984	-0.594634	1.060531	0.164165	-0.594634	0.873378	0.133383	-0.498716	0.810994	0.082075	-0.378830	0.748610	1.025998	-2.766560	5.551391	0.000000	0.000000	16.865152	4.364493	-15.766701	3.298018	-3.395465	27.727299	40.708045	64.245611	4.489139	9.052624	9.723070	-5.638764	32.570390	38.023246	83.668422	2.431190	8.178994
0.156250	0.450383	-3.262079	92.209897	0.228828	0.878979	0.698739	10.170726	-1.166851	-3.047352	16.788057	0.293007	30.519297	9.457085	0.000000	9.184634	-1.148543	4.358969	13.812224	0.241069	24.488398	-7.008331	0.000000	0.143417	-0.250014	0.975464	0.266340	-0.332518	1.036430	0.235620	-0.607883	1.036430	0.163911	-0.607883	0.853531	0.133177	-0.509828	0.792564	0.081949	-0.387271	0.731598	1.024414	-2.828204	5.425237	0.000000	0.000000	17.372714	4.921074	-14.987570	3.525476	-3.409759	27.397193	40.266137	65.637292	3.832042	8.216872	9.994930	-5.537132	34.177518	37.259899	83.207110	2.354520	7.770786
